<svg width="64" height="64" viewBox="0 0 64 64" fill="none" xmlns="http://www.w3.org/2000/svg">
<g clip-path="url(#clip0_1_2)">
<g filter="url(#filter0_dd_1_2)">
<path d="M44 1H20C10.0589 1 2 9.05887 2 19V43C2 52.9411 10.0589 61 20 61H44C53.9411 61 62 52.9411 62 43V19C62 9.05887 53.9411 1 44 1Z" fill="white"/>
<path d="M44 1.5H20C10.335 1.5 2.5 9.33502 2.5 19V43C2.5 52.665 10.335 60.5 20 60.5H44C53.665 60.5 61.5 52.665 61.5 43V19C61.5 9.33502 53.665 1.5 44 1.5Z" stroke="#190017" stroke-opacity="0.06"/>
<path fill-rule="evenodd" clip-rule="evenodd" d="M27 25C26.4477 25 26 25.4477 26 26V31C26 33.2091 24.2091 35 22 35C19.7909 35 18 33.2091 18 31V26C18 21.0294 22.0294 17 27 17C31.9706 17 36 21.0294 36 26V36C36 36.5523 36.4477 37 37 37C37.5523 37 38 36.5523 38 36V31C38 28.7909 39.7909 27 42 27C44.2091 27 46 28.7909 46 31V36C46 40.9706 41.9706 45 37 45C32.0294 45 28 40.9706 28 36V26C28 25.4477 27.5523 25 27 25Z" fill="#190017"/>
</g>
</g>
<defs>
<filter id="filter0_dd_1_2" x="0" y="0" width="65" height="65" filterUnits="userSpaceOnUse" color-interpolation-filters="sRGB">
<feFlood flood-opacity="0" result="BackgroundImageFix"/>
<feColorMatrix in="SourceAlpha" type="matrix" values="0 0 0 0 0 0 0 0 0 0 0 0 0 0 0 0 0 0 127 0" result="hardAlpha"/>
<feOffset dy="1"/>
<feGaussianBlur stdDeviation="1"/>
<feComposite in2="hardAlpha" operator="out"/>
<feColorMatrix type="matrix" values="0 0 0 0 0 0 0 0 0 0 0 0 0 0 0 0 0 0 0.12 0"/>
<feBlend mode="normal" in2="BackgroundImageFix" result="effect1_dropShadow_1_2"/>
<feColorMatrix in="SourceAlpha" type="matrix" values="0 0 0 0 0 0 0 0 0 0 0 0 0 0 0 0 0 0 127 0" result="hardAlpha"/>
<feOffset dx="1" dy="2"/>
<feGaussianBlur stdDeviation="1"/>
<feComposite in2="hardAlpha" operator="out"/>
<feColorMatrix type="matrix" values="0 0 0 0 1 0 0 0 0 1 0 0 0 0 1 0 0 0 0.32 0"/>
<feBlend mode="normal" in2="effect1_dropShadow_1_2" result="effect2_dropShadow_1_2"/>
<feBlend mode="normal" in="SourceGraphic" in2="effect2_dropShadow_1_2" result="shape"/>
</filter>
<clipPath id="clip0_1_2">
<rect width="64" height="64" fill="white"/>
</clipPath>
</defs>
</svg>
