<svg class="lg:mx-auto max-w-full max-h-full fill-current" height="27" xmlns="http://www.w3.org/2000/svg" viewBox="0 0 252 27" fill="none">
  <g id="qjeslrfbzi-logo_brand" clip-path="url(#qjeslrfbzi-clip0_1946_13763)">
    <g id="qjeslrfbzi-Group">
      <path id="qjeslrfbzi-Vector" d="M43.3407 26.7761C39.5527 26.7761 37.6771 24.5761 37.6771 20.9036V11.2036H34.25V7.42109H37.6771V2.57359L42.1868 1.43359V7.42109H46.9126V11.2086H42.1868V20.5011C42.1868 21.9736 42.8374 22.5961 44.2784 22.5961C45.2138 22.5961 45.9724 22.5586 47.2023 22.4111V26.2711C45.938 26.5961 44.6761 26.7786 43.3407 26.7786V26.7761Z" fill="currentColor"></path>
      <path id="qjeslrfbzi-Vector_2" d="M60.8914 26.5145V14.7245C60.8914 12.5195 60.1721 11.162 57.7908 11.162C55.0854 11.162 53.9316 14.0995 53.9316 16.4495V26.5145H49.4219V0.00195312H53.9316V9.43695C55.0167 7.82195 57.1034 6.93945 59.0526 6.93945C63.0566 6.93945 65.4011 9.83945 65.4011 13.772V26.5145H60.8914Z" fill="currentColor"></path>
      <path id="qjeslrfbzi-Vector_3" d="M84.9719 18.4056H72.4222C72.3854 19.8731 72.8911 21.2681 73.7921 22.1506C74.4377 22.7756 75.3411 23.3281 76.5711 23.3281C77.8673 23.3281 78.6602 23.0706 79.3132 22.4081C79.7036 22.0031 80.0325 21.4906 80.2142 20.7931H84.5423C84.4343 21.9331 83.6781 23.4431 82.9564 24.3231C81.3729 26.2331 79.026 27.0031 76.6472 27.0031C74.0842 27.0031 72.2062 26.0856 70.7308 24.6506C68.8552 22.8156 67.8438 20.1356 67.8438 17.0156C67.8438 13.8956 68.7447 11.2481 70.5466 9.37313C71.9533 7.90813 73.9713 6.95312 76.5342 6.95312C79.3157 6.95312 81.8345 8.09313 83.386 10.4781C84.7583 12.5731 85.0799 14.7381 85.0112 17.1281C85.0063 17.1206 84.9719 18.0031 84.9719 18.4081V18.4056ZM79.3452 11.7206C78.7314 11.0581 77.7961 10.6156 76.495 10.6156C75.1251 10.6156 74.0081 11.2056 73.3551 12.0831C72.7119 12.9256 72.4222 13.8081 72.3854 15.0556H80.499C80.4622 13.6281 80.0645 12.5231 79.3452 11.7181V11.7206Z" fill="currentColor"></path>
      <path id="qjeslrfbzi-Vector_4" d="M94.6932 4.88273V26.5177H89.8079V4.88273H82.2344V0.240234H102.262V4.88273H94.6908H94.6932Z" fill="currentColor"></path>
      <path id="qjeslrfbzi-Vector_5" d="M109.748 11.4941C106.579 11.4941 104.917 13.8091 104.917 16.8916V26.5141H100.375V7.41656H104.195L104.593 10.2841C105.457 8.07906 107.693 7.16406 109.893 7.16406C110.362 7.16406 110.833 7.20156 111.299 7.27406V11.6816C110.796 11.5666 110.256 11.4941 109.75 11.4941H109.748Z" fill="currentColor"></path>
      <path id="qjeslrfbzi-Vector_6" d="M127.781 26.812C125.834 26.812 124.751 25.5645 124.609 24.132C123.745 25.6745 121.579 26.9945 118.911 26.9945C114.438 26.9945 112.133 24.132 112.133 21.007C112.133 17.372 114.909 15.277 118.479 15.0245L124 14.617V13.442C124 11.6395 123.381 10.432 120.823 10.432C118.732 10.432 117.507 11.3845 117.396 13.147H113.034C113.287 8.84445 116.64 6.93945 120.826 6.93945C124.039 6.93945 126.777 7.96695 127.857 10.832C128.326 12.047 128.402 13.4045 128.402 14.6895V21.777C128.402 22.6595 128.691 22.992 129.445 22.992C129.73 22.992 130.024 22.9195 130.024 22.9195V26.297C129.259 26.627 128.863 26.812 127.781 26.812ZM123.998 18.032L119.233 18.3995C117.863 18.5095 116.53 19.357 116.53 20.897C116.53 22.437 117.791 23.282 119.201 23.282C122.016 23.282 124 21.7395 124 18.9095V18.0295L123.998 18.032Z" fill="currentColor"></path>
      <path id="qjeslrfbzi-Vector_7" d="M144.711 26.5175L144.426 24.425C143.307 26.1875 141.213 26.96 139.16 26.96C137.285 26.96 135.736 26.2975 134.579 25.345C132.338 23.4725 131.258 20.605 131.258 17.0075C131.258 13.41 132.375 10.3575 134.611 8.4825C135.763 7.53 137.282 6.94 139.192 6.94C141.573 6.94 143.304 7.75 144.1 8.74V0H148.607V26.5175H144.711ZM140.061 10.8C138.655 10.8 137.675 11.4575 137.032 12.305C136.092 13.5525 135.844 15.2825 135.844 16.935C135.844 18.5875 136.097 20.35 137.032 21.5975C137.68 22.44 138.657 23.1025 140.061 23.1025C143.596 23.1025 144.318 19.6875 144.318 16.935C144.318 14.1825 143.596 10.8 140.061 10.8Z" fill="currentColor"></path>
      <path id="qjeslrfbzi-Vector_8" d="M167.852 18.4017H155.302C155.265 19.8692 155.771 21.2642 156.672 22.1467C157.32 22.7717 158.224 23.3242 159.449 23.3242C160.75 23.3242 161.54 23.0667 162.191 22.4042C162.588 21.9992 162.912 21.4867 163.092 20.7892H167.42C167.312 21.9292 166.553 23.4392 165.834 24.3192C164.248 26.2292 161.903 26.9992 159.522 26.9992C156.964 26.9992 155.086 26.0842 153.606 24.6467C151.73 22.8117 150.719 20.1317 150.719 17.0117C150.719 13.8917 151.62 11.2442 153.422 9.36922C154.828 7.90422 156.846 6.94922 159.409 6.94922C162.188 6.94922 164.709 8.08922 166.263 10.4742C167.633 12.5692 167.957 14.7342 167.886 17.1242C167.886 17.1167 167.854 17.9992 167.854 18.4042L167.852 18.4017ZM162.223 11.7142C161.609 11.0517 160.674 10.6092 159.372 10.6092C158.003 10.6092 156.886 11.1992 156.235 12.0767C155.584 12.9192 155.3 13.8017 155.26 15.0492H163.376C163.34 13.6217 162.947 12.5167 162.223 11.7117V11.7142Z" fill="currentColor"></path>
      <path id="qjeslrfbzi-Vector_9" d="M187.282 23.728C185.588 25.528 183.025 26.518 180.101 26.518H170.148V0.480469H180.101C183.025 0.480469 185.585 1.47047 187.282 3.27047C189.913 6.02547 190.277 9.88297 190.277 13.483C190.277 17.083 189.911 20.9755 187.282 23.7305V23.728ZM183.707 6.20797C182.843 5.32797 181.579 4.73547 180.101 4.73547H174.801V22.2555H180.101C181.579 22.2555 182.843 21.6705 183.707 20.788C185.509 18.953 185.546 15.868 185.546 13.4805C185.546 11.093 185.509 8.04047 183.707 6.20797Z" fill="currentColor"></path>
      <path id="qjeslrfbzi-Vector_10" d="M208.87 18.4056H196.315C196.278 19.8731 196.784 21.2681 197.688 22.1506C198.338 22.7756 199.234 23.3281 200.462 23.3281C201.758 23.3281 202.553 23.0706 203.204 22.4081C203.602 22.0031 203.923 21.4906 204.105 20.7931H208.43C208.322 21.9331 207.564 23.4431 206.845 24.3231C205.259 26.2331 202.914 27.0031 200.533 27.0031C197.97 27.0031 196.099 26.0856 194.619 24.6506C192.743 22.8131 191.734 20.1356 191.734 17.0156C191.734 13.8956 192.638 11.2481 194.437 9.37313C195.844 7.90813 197.867 6.95312 200.427 6.95312C203.206 6.95312 205.728 8.09313 207.282 10.4781C208.651 12.5731 208.975 14.7381 208.904 17.1281C208.904 17.1206 208.867 18.0031 208.867 18.4081L208.87 18.4056ZM203.243 11.7206C202.629 11.0581 201.689 10.6156 200.393 10.6156C199.023 10.6156 197.904 11.2056 197.253 12.0831C196.607 12.9256 196.313 13.8081 196.281 15.0556H204.395C204.363 13.6281 203.965 12.5231 203.246 11.7181L203.243 11.7206Z" fill="currentColor"></path>
      <path id="qjeslrfbzi-Vector_11" d="M228.104 0V26.5175H232.609V21.4875L235.604 18.1825L240.87 26.5175H246.099L238.668 14.8L245.375 7.4175H239.716L232.606 15.17V0H228.102H228.104Z" fill="currentColor"></path>
      <path id="qjeslrfbzi-Vector_12" d="M220.971 15.2045C219.127 14.9095 218.658 14.877 216.967 14.652C215.955 14.5045 214.807 14.0995 214.807 12.747C214.807 11.7495 215.457 11.0545 216.248 10.722C216.935 10.432 217.549 10.432 218.194 10.432C219.13 10.432 220.109 10.762 220.647 11.3145C221.081 11.7895 221.405 12.377 221.405 13.1145H225.699C225.699 11.7195 225.054 10.2845 224.04 9.17945C222.67 7.67445 220.396 6.93945 218.16 6.93945C215.924 6.93945 213.834 7.63945 212.462 8.84445C211.345 9.84195 210.555 11.1995 210.555 13.147C210.555 15.5695 212.283 17.702 214.848 18.252C216.503 18.6195 218.379 18.727 220.038 18.9845C221.194 19.172 221.916 19.9045 221.916 21.0045C221.916 23.0995 219.606 23.432 218.094 23.432C216.798 23.432 215.965 23.172 215.246 22.5845C214.762 22.187 214.397 21.4795 214.281 20.762H210.039C210.169 22.3845 210.999 23.8045 211.998 24.7845C213.55 26.2895 215.678 26.9895 218.057 26.9895C220.62 26.9895 222.959 26.3295 224.474 24.7845C225.449 23.7945 226.097 22.432 226.097 20.597C226.089 17.5895 223.929 15.6795 220.968 15.202L220.971 15.2045Z" fill="currentColor"></path>
      <path id="qjeslrfbzi-Vector_13" d="M249.588 7.35742C248.2 7.35742 247.172 6.25742 247.172 4.86242C247.172 3.46742 248.2 2.35742 249.588 2.35742C250.975 2.35742 251.998 3.46242 251.998 4.85242C252.003 6.24742 250.975 7.35742 249.588 7.35742ZM249.588 2.79742C248.404 2.79742 247.626 3.67742 247.626 4.86242C247.626 6.04742 248.409 6.92242 249.588 6.92242C250.766 6.92242 251.549 6.04742 251.549 4.85742C251.549 3.66742 250.768 2.79742 249.588 2.79742ZM250.13 6.11992L249.703 5.16492H249.207V6.11992H248.755V3.51242H249.696C250.182 3.51242 250.601 3.79992 250.601 4.32992C250.601 4.66742 250.459 4.93742 250.142 5.08242L250.614 6.11992H250.133H250.13ZM249.693 3.93742H249.192V4.73992H249.693C249.958 4.73992 250.135 4.61742 250.135 4.33492C250.135 4.05242 249.931 3.93492 249.693 3.93492V3.93742Z" fill="currentColor"></path>
    </g>
    <g id="qjeslrfbzi-Group_2">
      <path id="qjeslrfbzi-Vector_14" d="M7.11443 19.5486V25.3811C2.88701 23.1486 0 18.6511 0 13.4661C0 11.5661 0.387881 9.75859 1.09 8.12109H6.47614C5.34196 9.59359 4.66439 11.4486 4.66439 13.4661C4.66439 15.8361 5.59973 17.9836 7.11443 19.5486Z" fill="currentColor"></path>
      <path id="qjeslrfbzi-Vector_15" d="M26.3418 13.4646C26.3418 20.8746 20.445 26.8796 13.171 26.8796C12.3781 26.8796 11.5999 26.8071 10.8438 26.6696V21.8021C11.5827 22.0146 12.3634 22.1296 13.171 22.1296C17.8673 22.1296 21.6774 18.2496 21.6774 13.4646C21.6774 11.0846 20.7347 8.92711 19.2077 7.36211V1.53711C23.445 3.76711 26.3418 8.27211 26.3418 13.4646Z" fill="currentColor"></path>
      <path id="qjeslrfbzi-Vector_16" d="M5.80469 0.125V4.87H10.8471V15.1275H15.5214V0.125H5.80469Z" fill="currentColor"></path>
    </g>
  </g>
  <defs>
    <clipPath id="qjeslrfbzi-clip0_1946_13763">
      <rect width="252" height="27" fill="white"></rect>
    </clipPath>
  </defs>
</svg>