<?xml version="1.0" encoding="UTF-8"?>
<svg id="Layer_2" data-name="Layer 2" xmlns="http://www.w3.org/2000/svg" xmlns:xlink="http://www.w3.org/1999/xlink" viewBox="0 0 2048 2048">
  <defs>
    <style>
      .cls-1 {
        clip-path: url(#clippath);
      }

      .cls-2, .cls-3 {
        fill: #fff;
      }

      .cls-4 {
        fill: #363a4f;
      }

      .cls-4, .cls-3 {
        stroke-width: 0px;
      }
    </style>
    <clipPath id="clippath">
      <path class="cls-3" d="M643.71,978.88l116.97-314.15h43.45l-116.97,314.15h-43.45ZM960.86,978.88l-116.64-314.15h43.45l116.64,314.15h-43.45ZM1044.74,978.88l116.97-314.15h43.44l-116.97,314.15h-43.45ZM1361.89,978.88l-116.64-314.15h43.45l116.64,314.15h-43.45ZM584.54,1383.26c-33.87-8.91-60.05-24.68-78.54-47.29-18.5-22.61-27.74-50.18-27.74-82.72v-60.49c0-21.39,4.29-40.82,12.87-58.32,8.57-17.49,20.83-32.42,36.76-44.78,15.93-12.37,34.81-21.44,56.65-27.24v41.11c-13.15,3.12-24.56,8.8-34.25,17.04-9.69,8.25-17.1,18.49-22.22,30.75-5.13,12.26-7.69,26.07-7.69,41.44v60.49c0,14.93,2.56,28.46,7.69,40.61,5.12,12.14,12.53,22.28,22.22,30.41,9.69,8.14,21.11,13.76,34.25,16.88v42.11ZM650.37,1211.15v-38.43h145.71v38.43h-145.71ZM650.37,1293.03v-38.43h145.71v38.43h-145.71ZM906.03,1199.46l-4.34-48.13v-52.14h42.44v52.14l-4.01,48.13h-34.09ZM1106.55,1199.46l-4.34-48.13v-52.14h42.44v52.14l-4.01,48.13h-34.09ZM1251.92,1211.15v-38.43h145.71v38.43h-145.71ZM1251.92,1293.03v-38.43h145.71v38.43h-145.71ZM1463.47,1383.26v-42.11c13.37-3.11,24.84-8.74,34.42-16.88,9.58-8.13,16.93-18.27,22.06-30.41,5.12-12.14,7.69-25.68,7.69-40.61v-60.49c0-15.37-2.57-29.18-7.69-41.44-5.13-12.25-12.48-22.5-22.06-30.75-9.58-8.24-21.06-13.92-34.42-17.04v-41.11c22.06,5.8,40.99,14.87,56.82,27.24,15.82,12.37,28.01,27.3,36.59,44.78,8.58,17.49,12.86,36.93,12.86,58.32v60.49c0,32.53-9.25,60.1-27.74,82.72-18.49,22.61-44.67,38.38-78.54,47.29Z"/>
    </clipPath>
  </defs>
  <g id="Layer_1-2" data-name="Layer 1">
    <rect class="cls-4" width="2048" height="2048"/>
    <g>
      <path class="cls-2" d="M643.71,978.88l116.97-314.15h43.45l-116.97,314.15h-43.45ZM960.86,978.88l-116.64-314.15h43.45l116.64,314.15h-43.45ZM1044.74,978.88l116.97-314.15h43.44l-116.97,314.15h-43.45ZM1361.89,978.88l-116.64-314.15h43.45l116.64,314.15h-43.45ZM584.54,1383.26c-33.87-8.91-60.05-24.68-78.54-47.29-18.5-22.61-27.74-50.18-27.74-82.72v-60.49c0-21.39,4.29-40.82,12.87-58.32,8.57-17.49,20.83-32.42,36.76-44.78,15.93-12.37,34.81-21.44,56.65-27.24v41.11c-13.15,3.12-24.56,8.8-34.25,17.04-9.69,8.25-17.1,18.49-22.22,30.75-5.13,12.26-7.69,26.07-7.69,41.44v60.49c0,14.93,2.56,28.46,7.69,40.61,5.12,12.14,12.53,22.28,22.22,30.41,9.69,8.14,21.11,13.76,34.25,16.88v42.11ZM650.37,1211.15v-38.43h145.71v38.43h-145.71ZM650.37,1293.03v-38.43h145.71v38.43h-145.71ZM906.03,1199.46l-4.34-48.13v-52.14h42.44v52.14l-4.01,48.13h-34.09ZM1106.55,1199.46l-4.34-48.13v-52.14h42.44v52.14l-4.01,48.13h-34.09ZM1251.92,1211.15v-38.43h145.71v38.43h-145.71ZM1251.92,1293.03v-38.43h145.71v38.43h-145.71ZM1463.47,1383.26v-42.11c13.37-3.11,24.84-8.74,34.42-16.88,9.58-8.13,16.93-18.27,22.06-30.41,5.12-12.14,7.69-25.68,7.69-40.61v-60.49c0-15.37-2.57-29.18-7.69-41.44-5.13-12.25-12.48-22.5-22.06-30.75-9.58-8.24-21.06-13.92-34.42-17.04v-41.11c22.06,5.8,40.99,14.87,56.82,27.24,15.82,12.37,28.01,27.3,36.59,44.78,8.58,17.49,12.86,36.93,12.86,58.32v60.49c0,32.53-9.25,60.1-27.74,82.72-18.49,22.61-44.67,38.38-78.54,47.29Z"/>
      <g class="cls-1">
        <rect class="cls-3" x="478.26" y="664.74" width="1091.48" height="835.5"/>
      </g>
    </g>
  </g>
</svg>