<?xml version="1.0" encoding="UTF-8"?>
<svg version="1.1" xmlns="http://www.w3.org/2000/svg" width="16" height="16">
<path d="M0,0 L3,0 L3,1 L9,1 L9,0 L12,0 L12,3 L9,3 L9,2 L3,2 L3,3 L2,3 L2,9 L3,9 L3,12 L0,12 L0,9 L1,9 L1,3 L0,3 Z " fill="#FFFFFF" transform="translate(2,2)"/>
<path d="M0,0 L1,0 L1,1 L2,1 L2,4 L-1,4 L-1,3 L-2,3 L-2,2 L-1,2 L-1,1 L0,1 Z M0,2 L0,3 L1,3 L1,2 Z " fill="#FFFFFF" transform="translate(12,10)"/>
<path d="M0,0 L1,0 L1,1 L0,1 Z " fill="#FFFFFF" transform="translate(8,12)"/>
<path d="M0,0 L1,0 L1,1 L0,1 Z " fill="#FFFFFF" transform="translate(6,12)"/>
<path d="M0,0 L1,0 L1,1 L0,1 Z " fill="#FFFFFF" transform="translate(12,8)"/>
<path d="M0,0 L1,0 L1,1 L0,1 Z " fill="#FFFFFF" transform="translate(12,6)"/>
</svg>
