<?xml version="1.0" encoding="UTF-8"?>
<svg version="1.1" xmlns="http://www.w3.org/2000/svg" width="16" height="16">
<path d="M0,0 L1,0 L1,10 L0,10 L0,9 L-1,9 L-1,8 L-3,8 L-3,7 L-4,7 L-4,10 L-6,10 L-6,7 L-7,7 L-7,3 L-3,3 L-3,2 L-1,2 L-1,1 L0,1 Z " fill="#FFFFFF" transform="translate(9,3)"/>
<path d="M0,0 L4,0 L4,2 L0,2 Z " fill="#FFFFFF" transform="translate(11,7)"/>
<path d="M0,0 L1,0 L1,1 L2,1 L2,2 L3,2 L3,4 L2,4 L2,3 L1,3 L1,2 L0,2 Z " fill="#FFFFFF" transform="translate(11,10)"/>
<path d="M0,0 L1,0 L1,2 L0,2 L0,3 L-1,3 L-1,4 L-2,4 L-2,2 L-1,2 L-1,1 L0,1 Z " fill="#FFFFFF" transform="translate(13,2)"/>
</svg>
