<?xml version="1.0" encoding="UTF-8"?>
<svg version="1.1" xmlns="http://www.w3.org/2000/svg" width="16" height="16">
<path d="M0,0 L9,0 L9,1 L0,1 Z " fill="#FFFFFF" transform="translate(2,8)"/>
<path d="M0,0 L7,0 L7,1 L0,1 Z " fill="#FFFFFF" transform="translate(7,12)"/>
<path d="M0,0 L7,0 L7,1 L0,1 Z " fill="#FFFFFF" transform="translate(6,4)"/>
<path d="M0,0 L6,0 L6,1 L0,1 Z " fill="#FFFFFF" transform="translate(8,6)"/>
<path d="M0,0 L5,0 L5,1 L0,1 Z " fill="#FFFFFF" transform="translate(2,2)"/>
<path d="M0,0 L4,0 L4,1 L0,1 Z " fill="#FFFFFF" transform="translate(2,12)"/>
<path d="M0,0 L4,0 L4,1 L0,1 Z " fill="#FFFFFF" transform="translate(5,10)"/>
<path d="M0,0 L4,0 L4,1 L0,1 Z " fill="#FFFFFF" transform="translate(2,6)"/>
<path d="M0,0 L4,0 L4,1 L0,1 Z " fill="#FFFFFF" transform="translate(10,2)"/>
<path d="M0,0 L2,0 L2,1 L0,1 Z " fill="#FFFFFF" transform="translate(10,10)"/>
<path d="M0,0 L2,0 L2,1 L0,1 Z " fill="#FFFFFF" transform="translate(2,10)"/>
<path d="M0,0 L2,0 L2,1 L0,1 Z " fill="#FFFFFF" transform="translate(12,8)"/>
<path d="M0,0 L2,0 L2,1 L0,1 Z " fill="#FFFFFF" transform="translate(2,4)"/>
<path d="M0,0 L1,0 L1,1 L0,1 Z " fill="#FFFFFF" transform="translate(8,2)"/>
</svg>
