<?xml version="1.0" encoding="UTF-8"?>
<svg width="1200px" height="395px" viewBox="0 0 11000 3200" xmlns="http://www.w3.org/2000/svg">
    <g fill="#fff">
        <path d="m1487.2 3132.9c-379-36-750-218-999-488-177-192-309-448-366-713-26-118-27-419-1-538 57-263 178-507 348-698 211-237 507-407 851-486 92-21 106-21 1381-24l1287-4v798c0 493 4 823 10 863 28 178 177 338 380 406 69 24 278 26 355 5 192-54 358-217 394-389 8-36 11-306 11-867v-815h1675 1675v60 60h-655-655v60 60h655 655v65 65h-655-655v60 60h655 655v65 65h-655-655v245 245h335 335v60 60h-335-335v60 60h335 335v65 65h-335-335v60 60h335 335v60 60h-335-335v140 140h1363c942 0 1374-3 1401-11 61-17 86-49 86-108 0-38-6-56-24-78l-24-28-209-7c-264-8-363-28-517-104-167-84-283-201-371-374-120-237-138-576-43-820 38-99 111-211 188-290 150-154 326-242 568-286 118-21 393-21 534 0 226 35 459 121 620 229 87 60 155 114 147 120-2 2-23 18-46 36-24 18-48 29-54 25-7-4-41-29-76-56-76-57-236-137-347-173-301-97-650-106-906-23-132 42-238 106-331 198-173 172-250 377-236 630 23 389 244 660 608 745 51 12 134 19 269 22 107 2 211 9 230 15 90 27 140 106 140 218-1 122-57 191-183 225-59 16-163 17-1425 14l-1362-4v53 52h803c441 0 1046 5 1343 11 611 12 645 10 762-47 123-60 182-159 182-305 0-106-31-190-93-254-75-77-110-86-387-95-249-9-299-18-418-76-139-68-258-209-315-373-39-113-49-304-23-425 35-155 140-310 268-398 135-91 279-135 478-145 340-17 695 80 903 245l37 30-37 29c-21 16-43 33-49 36-7 4-41-13-76-36-235-158-677-230-964-157-185 47-326 153-397 300-44 90-57 152-57 274 0 111 19 195 64 284 64 128 160 211 298 259 67 24 92 27 308 33 300 10 358 27 463 139 89 95 121 192 115 355-3 100-7 118-35 178-59 125-169 212-323 254-76 21 34 20-1667 9l-1183-7v61 61h658c361 0 954 5 1317 10 430 6 695 6 760-1 194-19 321-73 431-183 120-121 172-263 161-440-10-164-65-294-166-395-113-112-231-151-460-151-318 0-439-39-538-173-135-183-117-477 39-629 106-103 250-148 476-148 222 0 427 44 572 121 109 59 109 59 55 102l-47 36-61-34c-125-68-307-105-512-105-201 0-321 37-400 121-70 75-89 126-89 234 0 154 54 259 160 311 57 28 64 29 279 36 131 4 250 13 294 22 94 20 222 82 289 141 230 204 299 575 160 864-32 68-57 101-127 171-73 75-100 95-183 134-60 30-132 55-190 67-91 20-123 21-1485 19l-1393-2v61 61h1374c1186 0 1385-2 1462-15 372-64 616-274 705-605 29-107 29-302 0-424-66-275-246-477-501-561-109-36-185-45-371-45-196 0-251-12-297-64-40-46-56-98-56-177 0-146 94-218 303-235 149-12 384 23 505 75l48 21-47 37-48 36-75-18c-145-34-451-37-511-6-32 18-61 62-61 93 0 38 26 94 48 104 9 4 118 11 242 15 263 8 327 21 485 98 272 134 441 397 475 740 31 309-67 585-277 781-124 116-277 194-472 243-85 21-95 21-1573 24l-1488 3v-1355-1355h-890-889l-4 782c-3 839-2 811-54 928-74 165-268 320-460 367-104 25-287 23-388-6-238-67-424-245-479-458-14-53-16-164-16-837v-776h-1171c-1007 0-1186 2-1276 16-367 54-713 256-929 543-72 96-171 287-208 401-56 175-73 440-41 626 40 226 148 450 312 644 277 330 763 523 1205 480 410-39 750-223 1018-547l35-43 47 36c57 42 58 37-45 155-227 260-572 450-912 504-118 19-309 26-416 15z" />
        <path d="m4410.2 3132.9c-557-54-1046-436-1217-953-60-182-65-240-65-729v-438h-793c-752 0-798 1-869 19-231 59-412 230-479 451-17 57-23 99-22 175 0 183 56 318 183 446 275 277 711 274 986-7l70-72 47 34 48 35-20 27c-10 15-45 52-77 83-105 99-198 152-341 195-76 23-106 27-223 27-118 0-146-4-225-27-265-80-453-258-542-511-25-73-28-92-28-225 0-125 3-154 23-214 88-262 270-440 537-526 64-21 97-24 400-31 182-4 581-8 888-8l557-1v433c0 477 8 606 45 751 28 114 100 269 175 382 65 97 231 263 326 326 150 99 335 177 514 215 107 22 390 25 495 4 485-95 862-415 1015-861 50-148 52-175 57-702l5-498h279 279v1040 1040h-60-60v-980-980h-160-160v433c0 414-1 437-24 548-97 477-462 874-951 1034-178 59-415 83-613 65z" />
        <path d="m6558.2 1907.9v-1105h-399-400l-4 557c-4 603-5 616-63 768-136 363-428 622-819 726-113 30-130 32-300 33-143 1-197-3-260-18-411-96-703-334-859-699-76-178-79-202-83-834l-5-563h-887c-562 0-918 4-971 11-229 28-458 156-601 336-65 82-139 224-164 318-23 84-31 280-15 369 47 270 229 510 482 637 129 65 232 91 388 96 158 6 275-14 403-67 139-58 304-181 371-279l28-40 49 32c27 18 49 37 49 42 0 14-96 123-150 171-113 101-262 181-425 231-84 25-103 27-280 27-169 1-200-2-275-22-383-105-665-388-757-760-12-46-17-111-17-212 0-178 21-277 93-425 61-125 117-201 225-302 132-124 308-218 486-258 88-20 667-33 1568-34l532-1v599c0 658 3 694 60 854 49 133 118 237 239 357 161 160 319 245 542 290 90 19 126 21 264 17 198-7 305-32 456-107 262-131 450-351 536-625l28-90 3-627 3-628h529 530v1165 1165h-65-65v-1105z" />
        <path d="m6808.2 1782.9v-1230h-650-650v650c0 716-1 731-62 878-107 257-338 454-625 534-66 19-105 22-253 22-151 1-186-2-257-22-167-45-304-122-422-236-115-111-196-244-243-398-22-72-22-83-26-760l-3-688h-982c-579 0-1029 4-1097 10-585 52-1032 493-1066 1055-19 302 99 613 316 833 161 164 393 285 635 333 102 20 349 18 453-5 281-60 517-205 699-430l31-38 46 31c25 18 46 37 46 44 0 20-134 169-204 227-246 203-543 310-859 310-672 0-1235-499-1286-1140-14-177 6-344 61-500 148-420 531-741 983-825 103-20 801-33 1797-34l557-1 3 758 3 757 32 84c99 255 320 442 598 502 95 21 304 15 400-10 245-65 436-219 535-434 66-141 64-110 68-904l3-723h770 769v1290 1290h-60-60v-1230z" />
    </g>
</svg>
