<?xml version="1.0" encoding="UTF-8"?>
<svg id="Layer_2" data-name="Layer 2" xmlns="http://www.w3.org/2000/svg" xmlns:xlink="http://www.w3.org/1999/xlink" viewBox="0 0 2048 2048">
  <defs>
    <style>
      .cls-1 {
        clip-path: url(#clippath);
      }

      .cls-2, .cls-3 {
        fill: #fff;
      }

      .cls-4 {
        fill: #363a4f;
      }

      .cls-4, .cls-3 {
        stroke-width: 0px;
      }
    </style>
    <clipPath id="clippath">
      <path class="cls-3" d="M641.2,796.74l116.97-314.15h43.45l-116.97,314.15h-43.45ZM958.35,796.74l-116.64-314.15h43.45l116.64,314.15h-43.45ZM1042.23,796.74l116.97-314.15h43.44l-116.97,314.15h-43.45ZM1359.38,796.74l-116.64-314.15h43.45l116.64,314.15h-43.45ZM582.03,1201.12c-33.87-8.91-60.05-24.68-78.54-47.29-18.5-22.61-27.74-50.18-27.74-82.72v-60.49c0-21.39,4.29-40.82,12.87-58.32,8.57-17.49,20.83-32.42,36.76-44.78,15.93-12.37,34.81-21.44,56.65-27.24v41.11c-13.15,3.12-24.56,8.8-34.25,17.04-9.69,8.25-17.1,18.49-22.22,30.75-5.13,12.26-7.69,26.07-7.69,41.44v60.49c0,14.93,2.56,28.46,7.69,40.61,5.12,12.14,12.53,22.28,22.22,30.41,9.69,8.14,21.11,13.76,34.25,16.88v42.11ZM647.86,1029.01v-38.43h145.71v38.43h-145.71ZM647.86,1110.89v-38.43h145.71v38.43h-145.71ZM903.52,1017.32l-4.34-48.13v-52.14h42.44v52.14l-4.01,48.13h-34.09ZM1104.04,1017.32l-4.34-48.13v-52.14h42.44v52.14l-4.01,48.13h-34.09ZM1249.41,1029.01v-38.43h145.71v38.43h-145.71ZM1249.41,1110.89v-38.43h145.71v38.43h-145.71ZM1460.96,1201.12v-42.11c13.37-3.11,24.84-8.74,34.42-16.88,9.58-8.13,16.93-18.27,22.06-30.41,5.12-12.14,7.69-25.68,7.69-40.61v-60.49c0-15.37-2.57-29.18-7.69-41.44-5.13-12.25-12.48-22.5-22.06-30.75-9.58-8.24-21.06-13.92-34.42-17.04v-41.11c22.06,5.8,40.99,14.87,56.82,27.24,15.82,12.37,28.01,27.3,36.59,44.78,8.58,17.49,12.86,36.93,12.86,58.32v60.49c0,32.53-9.25,60.1-27.74,82.72-18.49,22.61-44.67,38.38-78.54,47.29Z"/>
    </clipPath>
  </defs>
  <g id="Layer_1-2" data-name="Layer 1">
    <rect class="cls-4" width="2048" height="2048"/>
    <g>
      <g>
        <path class="cls-2" d="M641.2,796.74l116.97-314.15h43.45l-116.97,314.15h-43.45ZM958.35,796.74l-116.64-314.15h43.45l116.64,314.15h-43.45ZM1042.23,796.74l116.97-314.15h43.44l-116.97,314.15h-43.45ZM1359.38,796.74l-116.64-314.15h43.45l116.64,314.15h-43.45ZM582.03,1201.12c-33.87-8.91-60.05-24.68-78.54-47.29-18.5-22.61-27.74-50.18-27.74-82.72v-60.49c0-21.39,4.29-40.82,12.87-58.32,8.57-17.49,20.83-32.42,36.76-44.78,15.93-12.37,34.81-21.44,56.65-27.24v41.11c-13.15,3.12-24.56,8.8-34.25,17.04-9.69,8.25-17.1,18.49-22.22,30.75-5.13,12.26-7.69,26.07-7.69,41.44v60.49c0,14.93,2.56,28.46,7.69,40.61,5.12,12.14,12.53,22.28,22.22,30.41,9.69,8.14,21.11,13.76,34.25,16.88v42.11ZM647.86,1029.01v-38.43h145.71v38.43h-145.71ZM647.86,1110.89v-38.43h145.71v38.43h-145.71ZM903.52,1017.32l-4.34-48.13v-52.14h42.44v52.14l-4.01,48.13h-34.09ZM1104.04,1017.32l-4.34-48.13v-52.14h42.44v52.14l-4.01,48.13h-34.09ZM1249.41,1029.01v-38.43h145.71v38.43h-145.71ZM1249.41,1110.89v-38.43h145.71v38.43h-145.71ZM1460.96,1201.12v-42.11c13.37-3.11,24.84-8.74,34.42-16.88,9.58-8.13,16.93-18.27,22.06-30.41,5.12-12.14,7.69-25.68,7.69-40.61v-60.49c0-15.37-2.57-29.18-7.69-41.44-5.13-12.25-12.48-22.5-22.06-30.75-9.58-8.24-21.06-13.92-34.42-17.04v-41.11c22.06,5.8,40.99,14.87,56.82,27.24,15.82,12.37,28.01,27.3,36.59,44.78,8.58,17.49,12.86,36.93,12.86,58.32v60.49c0,32.53-9.25,60.1-27.74,82.72-18.49,22.61-44.67,38.38-78.54,47.29Z"/>
        <g class="cls-1">
          <rect class="cls-3" x="475.75" y="482.6" width="1091.48" height="835.5"/>
        </g>
      </g>
      <g>
        <path class="cls-3" d="M521.54,1565.4c-15.6,0-29.24-2.96-40.94-8.86-11.7-5.9-20.72-14.26-27.07-25.07-6.35-10.8-9.52-23.56-9.52-38.27v-106.27c0-14.93,3.18-27.74,9.52-38.43,6.35-10.69,15.37-18.99,27.07-24.9,11.7-5.9,25.34-8.85,40.94-8.85s29.46,2.96,40.94,8.85c11.47,5.91,20.44,14.21,26.9,24.9,6.46,10.69,9.69,23.51,9.69,38.43h-42.11c0-11.58-3.12-20.39-9.36-26.4-6.24-6.02-14.93-9.02-26.07-9.02s-20.17,3.01-26.4,9.02c-6.24,6.02-9.36,14.7-9.36,26.07v106.61c0,11.36,3.12,20.11,9.36,26.24,6.23,6.13,15.04,9.19,26.4,9.19s19.83-3.06,26.07-9.19c6.23-6.12,9.36-14.87,9.36-26.24h42.11c0,14.49-3.23,27.19-9.69,38.1-6.46,10.92-15.43,19.33-26.9,25.23-11.48,5.9-25.12,8.86-40.94,8.86Z"/>
        <path class="cls-3" d="M720.72,1565.4c-23.84,0-42.5-6.52-55.98-19.55-13.48-13.03-20.22-30.8-20.22-53.3v-174.45h42.11v174.12c0,11.59,2.89,20.61,8.69,27.07,5.79,6.46,14.26,9.69,25.4,9.69s19.33-3.23,25.23-9.69c5.9-6.46,8.85-15.48,8.85-27.07v-174.12h42.11v174.45c0,22.51-6.68,40.27-20.05,53.3-13.37,13.04-32.08,19.55-56.14,19.55Z"/>
        <path class="cls-3" d="M922.57,1565.4c-15.6,0-29.25-2.96-40.94-8.86-11.7-5.9-20.72-14.26-27.07-25.07-6.35-10.8-9.52-23.56-9.52-38.27v-106.27c0-14.93,3.17-27.74,9.52-38.43,6.35-10.69,15.37-18.99,27.07-24.9,11.69-5.9,25.34-8.85,40.94-8.85s29.46,2.96,40.94,8.85c11.47,5.91,20.44,14.21,26.9,24.9,6.46,10.69,9.69,23.51,9.69,38.43h-42.11c0-11.58-3.12-20.39-9.36-26.4-6.24-6.02-14.93-9.02-26.06-9.02s-20.17,3.01-26.4,9.02c-6.24,6.02-9.36,14.7-9.36,26.07v106.61c0,11.36,3.11,20.11,9.36,26.24,6.24,6.13,15.04,9.19,26.4,9.19s19.83-3.06,26.06-9.19c6.24-6.12,9.36-14.87,9.36-26.24h42.11c0,14.49-3.23,27.19-9.69,38.1-6.46,10.92-15.43,19.33-26.9,25.23-11.48,5.9-25.12,8.86-40.94,8.86Z"/>
        <path class="cls-3" d="M1101.36,1565.4c-18.94,0-33.87-5.01-44.78-15.04-10.92-10.03-16.38-23.5-16.38-40.44,0-18.05,6.02-31.97,18.05-41.78,12.03-9.8,29.08-14.7,51.14-14.7h45.78v-15.71c0-8.91-2.9-15.87-8.68-20.89-5.8-5.01-13.7-7.52-23.73-7.52-8.92,0-16.44,2-22.56,6.02-6.13,4.01-9.75,9.47-10.86,16.37h-40.77c2.01-17.38,9.8-31.19,23.39-41.44,13.59-10.24,30.97-15.37,52.14-15.37,22.5,0,40.27,5.63,53.3,16.88,13.04,11.25,19.55,26.46,19.55,45.62v124.65h-40.44v-32.08h-6.68l6.68-9.02c0,13.59-5.01,24.4-15.04,32.41-10.03,8.02-23.39,12.03-40.11,12.03ZM1115.07,1533.99c11.81,0,21.44-3.01,28.91-9.02,7.46-6.02,11.19-13.81,11.19-23.39v-22.39h-45.12c-8.47,0-15.26,2.45-20.38,7.35-5.13,4.9-7.69,11.36-7.69,19.38,0,8.69,2.89,15.54,8.69,20.55,5.79,5.01,13.92,7.52,24.4,7.52Z"/>
        <path class="cls-3" d="M1301.21,1562.06v-205.2h-63.83v-38.77h169.77v38.77h-63.83v205.2h-42.11Z"/>
        <path class="cls-3" d="M1523.45,1565.4c-16.71,0-31.2-2.79-43.45-8.36-12.25-5.57-21.67-13.54-28.24-23.89-6.57-10.36-9.97-22.56-10.19-36.59h41.78c0,10.02,3.62,17.88,10.86,23.56,7.24,5.68,17.1,8.52,29.58,8.52s21.44-2.78,28.24-8.35c6.79-5.57,10.19-13.25,10.19-23.06,0-8.24-2.4-15.43-7.19-21.55-4.79-6.13-11.64-10.3-20.55-12.53l-28.07-7.69c-19.17-4.9-33.92-13.7-44.28-26.4-10.36-12.7-15.54-28.08-15.54-46.12,0-13.81,3.11-25.84,9.36-36.1,6.24-10.24,15.09-18.15,26.57-23.73,11.47-5.57,25.01-8.35,40.61-8.35,23.62,0,42.33,6.07,56.15,18.21,13.81,12.14,20.83,28.46,21.06,48.96h-41.78c0-9.58-3.12-17.1-9.36-22.56-6.24-5.46-15.04-8.19-26.4-8.19s-19.39,2.57-25.4,7.69c-6.02,5.13-9.02,12.37-9.02,21.72,0,8.47,2.28,15.66,6.85,21.55,4.56,5.91,11.2,10.09,19.89,12.53l29.07,8.02c19.38,4.9,34.2,13.65,44.45,26.23,10.24,12.59,15.38,28.13,15.38,46.62,0,13.82-3.35,26.02-10.03,36.6-6.69,10.58-16.04,18.77-28.07,24.56-12.03,5.79-26.19,8.69-42.45,8.69Z"/>
      </g>
    </g>
  </g>
</svg>