<?xml version="1.0" encoding="UTF-8"?>
<svg id="Layer_2" data-name="Layer 2" xmlns="http://www.w3.org/2000/svg" xmlns:xlink="http://www.w3.org/1999/xlink" viewBox="0 0 865.12 807.56">
  <defs>
    <style>
      .cls-1 {
        clip-path: url(#clippath);
      }

      .cls-2 {
        fill: none;
      }

      .cls-2, .cls-3, .cls-4 {
        stroke-width: 0px;
      }

      .cls-3 {
        fill: url(#linear-gradient);
      }

      .cls-4 {
        fill: #363a4f;
      }
    </style>
    <clipPath id="clippath">
      <path class="cls-2" d="M147.07,234.29L234.3,0h32.4l-87.24,234.29h-32.4ZM383.6,234.29L296.61,0h32.4l86.99,234.29h-32.4ZM446.16,234.29L533.4,0h32.4l-87.23,234.29h-32.4ZM682.69,234.29L595.7,0h32.4l86.99,234.29h-32.4ZM102.94,535.88c-25.26-6.65-44.78-18.4-58.57-35.27-13.79-16.87-20.69-37.43-20.69-61.69v-45.11c0-15.95,3.2-30.45,9.6-43.49,6.39-13.04,15.54-24.18,27.42-33.4,11.88-9.22,25.96-15.99,42.25-20.31v30.66c-9.81,2.33-18.32,6.57-25.55,12.71-7.23,6.15-12.76,13.79-16.58,22.93-3.82,9.14-5.73,19.44-5.73,30.91v45.11c0,11.13,1.91,21.23,5.73,30.28,3.82,9.06,9.35,16.62,16.58,22.68,7.23,6.07,15.74,10.26,25.55,12.59v31.41ZM152.04,407.52v-28.66h108.67v28.66h-108.67ZM152.04,468.58v-28.66h108.67v28.66h-108.67ZM342.71,398.79l-3.24-35.89v-38.88h31.65v38.88l-2.99,35.89h-25.42ZM492.25,398.79l-3.24-35.89v-38.88h31.65v38.88l-2.99,35.89h-25.42ZM600.67,407.52v-28.66h108.67v28.66h-108.67ZM600.67,468.58v-28.66h108.67v28.66h-108.67ZM758.44,535.88v-31.41c9.97-2.32,18.53-6.52,25.67-12.59,7.14-6.06,12.63-13.62,16.45-22.68,3.82-9.06,5.73-19.15,5.73-30.28v-45.11c0-11.46-1.91-21.76-5.73-30.91-3.82-9.14-9.31-16.78-16.45-22.93-7.15-6.15-15.7-10.38-25.67-12.71v-30.66c16.45,4.32,30.57,11.09,42.37,20.31,11.79,9.22,20.89,20.36,27.29,33.4,6.4,13.05,9.59,27.54,9.59,43.49v45.11c0,24.26-6.9,44.82-20.69,61.69-13.79,16.86-33.32,28.62-58.57,35.27Z"/>
    </clipPath>
    <linearGradient id="linear-gradient" x1="23.68" y1="311.56" x2="837.7" y2="311.56" gradientUnits="userSpaceOnUse">
      <stop offset="0" stop-color="#817fbc"/>
      <stop offset="0" stop-color="#8180bc"/>
      <stop offset=".22" stop-color="#89a7d7"/>
      <stop offset=".35" stop-color="#8eb6d7"/>
      <stop offset=".56" stop-color="#96c8d8"/>
      <stop offset=".77" stop-color="#9ad4d8"/>
      <stop offset="1" stop-color="#9cd8d9"/>
    </linearGradient>
  </defs>
  <g id="Layer_1-2" data-name="Layer 1">
    <g>
      <g class="cls-1">
        <rect class="cls-3" x="23.68" width="814.02" height="623.11"/>
      </g>
      <g>
        <path class="cls-4" d="M57.83,807.56c-11.63,0-21.81-2.21-30.53-6.61-8.72-4.4-15.45-10.63-20.19-18.69-4.73-8.06-7.1-17.57-7.1-28.54v-79.26c0-11.13,2.37-20.69,7.1-28.66,4.74-7.97,11.47-14.16,20.19-18.57,8.72-4.4,18.9-6.6,30.53-6.6s21.97,2.2,30.53,6.6c8.56,4.4,15.24,10.59,20.06,18.57,4.82,7.97,7.23,17.53,7.23,28.66h-31.4c0-8.64-2.33-15.21-6.98-19.69-4.65-4.49-11.13-6.73-19.44-6.73s-15.04,2.24-19.69,6.73c-4.66,4.49-6.98,10.97-6.98,19.44v79.51c0,8.48,2.32,15,6.98,19.57,4.65,4.57,11.22,6.85,19.69,6.85s14.79-2.28,19.44-6.85c4.65-4.57,6.98-11.09,6.98-19.57h31.4c0,10.8-2.41,20.28-7.23,28.41-4.82,8.14-11.51,14.42-20.06,18.82-8.56,4.4-18.74,6.61-30.53,6.61Z"/>
        <path class="cls-4" d="M206.37,807.56c-17.78,0-31.7-4.86-41.75-14.58-10.06-9.72-15.08-22.97-15.08-39.75v-130.11h31.4v129.86c0,8.64,2.16,15.37,6.48,20.19,4.32,4.82,10.63,7.23,18.94,7.23s14.41-2.41,18.82-7.23c4.4-4.82,6.6-11.55,6.6-20.19v-129.86h31.41v130.11c0,16.78-4.98,30.03-14.96,39.75-9.97,9.72-23.93,14.58-41.87,14.58Z"/>
        <path class="cls-4" d="M356.92,807.56c-11.63,0-21.81-2.21-30.53-6.61-8.73-4.4-15.45-10.63-20.19-18.69-4.74-8.06-7.1-17.57-7.1-28.54v-79.26c0-11.13,2.37-20.69,7.1-28.66,4.74-7.97,11.46-14.16,20.19-18.57,8.72-4.4,18.9-6.6,30.53-6.6s21.97,2.2,30.53,6.6c8.56,4.4,15.24,10.59,20.06,18.57,4.82,7.97,7.23,17.53,7.23,28.66h-31.4c0-8.64-2.33-15.21-6.98-19.69s-11.13-6.73-19.44-6.73-15.04,2.24-19.69,6.73c-4.66,4.49-6.98,10.97-6.98,19.44v79.51c0,8.48,2.32,15,6.98,19.57,4.65,4.57,11.22,6.85,19.69,6.85s14.79-2.28,19.44-6.85c4.65-4.57,6.98-11.09,6.98-19.57h31.4c0,10.8-2.41,20.28-7.23,28.41-4.82,8.14-11.51,14.42-20.06,18.82-8.56,4.4-18.74,6.61-30.53,6.61Z"/>
        <path class="cls-4" d="M490.26,807.56c-14.12,0-25.26-3.74-33.4-11.22-8.14-7.48-12.21-17.53-12.21-30.16,0-13.46,4.49-23.84,13.46-31.16,8.98-7.31,21.69-10.97,38.14-10.97h34.14v-11.72c0-6.64-2.16-11.84-6.48-15.58-4.32-3.74-10.22-5.61-17.7-5.61-6.65,0-12.26,1.49-16.83,4.49-4.57,2.99-7.27,7.06-8.1,12.21h-30.41c1.5-12.96,7.31-23.26,17.45-30.91,10.14-7.64,23.1-11.46,38.88-11.46,16.78,0,30.03,4.2,39.75,12.59,9.72,8.39,14.58,19.73,14.58,34.02v92.97h-30.16v-23.93h-4.98l4.98-6.73c0,10.14-3.74,18.19-11.21,24.17-7.48,5.98-17.45,8.98-29.91,8.98ZM500.48,784.13c8.81,0,15.99-2.24,21.56-6.73,5.56-4.49,8.35-10.3,8.35-17.45v-16.7h-33.65c-6.31,0-11.38,1.83-15.2,5.48-3.83,3.65-5.73,8.47-5.73,14.46,0,6.48,2.16,11.59,6.48,15.33,4.32,3.74,10.38,5.61,18.19,5.61Z"/>
        <path class="cls-4" d="M639.31,805.06v-153.04h-47.61v-28.91h126.62v28.91h-47.61v153.04h-31.41Z"/>
        <path class="cls-4" d="M805.05,807.56c-12.46,0-23.27-2.08-32.4-6.23-9.14-4.15-16.16-10.09-21.06-17.82-4.9-7.73-7.44-16.83-7.6-27.29h31.16c0,7.47,2.7,13.33,8.1,17.57,5.4,4.24,12.75,6.36,22.06,6.36s15.99-2.08,21.06-6.23c5.07-4.15,7.6-9.88,7.6-17.2,0-6.15-1.79-11.5-5.36-16.07s-8.68-7.68-15.33-9.35l-20.94-5.73c-14.29-3.65-25.3-10.22-33.03-19.69-7.73-9.47-11.59-20.94-11.59-34.4,0-10.3,2.32-19.27,6.98-26.92,4.65-7.64,11.25-13.54,19.81-17.69,8.56-4.15,18.65-6.23,30.28-6.23,17.61,0,31.57,4.53,41.88,13.58,10.3,9.06,15.53,21.23,15.7,36.51h-31.16c0-7.14-2.33-12.75-6.98-16.83-4.65-4.07-11.22-6.11-19.69-6.11s-14.46,1.91-18.94,5.73c-4.49,3.82-6.73,9.22-6.73,16.2,0,6.31,1.7,11.68,5.11,16.07,3.4,4.4,8.35,7.52,14.83,9.35l21.68,5.98c14.46,3.65,25.51,10.18,33.15,19.56,7.64,9.39,11.47,20.98,11.47,34.77,0,10.31-2.49,19.4-7.48,27.3-4.99,7.89-11.96,14-20.94,18.32-8.98,4.32-19.53,6.48-31.66,6.48Z"/>
      </g>
    </g>
  </g>
</svg>