<?xml version="1.0" encoding="UTF-8"?>
<svg id="Layer_2" data-name="Layer 2" xmlns="http://www.w3.org/2000/svg" xmlns:xlink="http://www.w3.org/1999/xlink" viewBox="0 0 814.02 535.88">
  <defs>
    <style>
      .cls-1 {
        clip-path: url(#clippath);
      }

      .cls-2, .cls-3 {
        fill: #fff;
      }

      .cls-3 {
        stroke-width: 0px;
      }
    </style>
    <clipPath id="clippath">
      <path class="cls-3" d="M123.39,234.29L210.63,0h32.4l-87.24,234.29h-32.4ZM359.92,234.29L272.94,0h32.4l86.99,234.29h-32.4ZM422.48,234.29L509.72,0h32.4l-87.23,234.29h-32.4ZM659.01,234.29L572.03,0h32.4l86.99,234.29h-32.4ZM79.26,535.88c-25.26-6.65-44.78-18.4-58.57-35.27C6.89,483.75,0,463.18,0,438.92v-45.11c0-15.95,3.2-30.45,9.6-43.49,6.39-13.04,15.54-24.18,27.42-33.4,11.88-9.22,25.96-15.99,42.25-20.31v30.66c-9.81,2.33-18.32,6.57-25.55,12.71-7.23,6.15-12.76,13.79-16.58,22.93-3.82,9.14-5.73,19.44-5.73,30.91v45.11c0,11.13,1.91,21.23,5.73,30.28,3.82,9.06,9.35,16.62,16.58,22.68,7.23,6.07,15.74,10.26,25.55,12.59v31.41ZM128.36,407.52v-28.66h108.67v28.66h-108.67ZM128.36,468.58v-28.66h108.67v28.66h-108.67ZM319.03,398.79l-3.24-35.89v-38.88h31.65v38.88l-2.99,35.89h-25.42ZM468.58,398.79l-3.24-35.89v-38.88h31.65v38.88l-2.99,35.89h-25.42ZM576.99,407.52v-28.66h108.67v28.66h-108.67ZM576.99,468.58v-28.66h108.67v28.66h-108.67ZM734.76,535.88v-31.41c9.97-2.32,18.53-6.52,25.67-12.59,7.14-6.06,12.63-13.62,16.45-22.68,3.82-9.06,5.73-19.15,5.73-30.28v-45.11c0-11.46-1.91-21.76-5.73-30.91-3.82-9.14-9.31-16.78-16.45-22.93-7.15-6.15-15.7-10.38-25.67-12.71v-30.66c16.45,4.32,30.57,11.09,42.37,20.31,11.79,9.22,20.89,20.36,27.29,33.4,6.4,13.05,9.59,27.54,9.59,43.49v45.11c0,24.26-6.9,44.82-20.69,61.69-13.79,16.86-33.32,28.62-58.57,35.27Z"/>
    </clipPath>
  </defs>
  <g id="Layer_1-2" data-name="Layer 1">
    <g>
      <path class="cls-2" d="M123.39,234.29L210.63,0h32.4l-87.24,234.29h-32.4ZM359.92,234.29L272.94,0h32.4l86.99,234.29h-32.4ZM422.48,234.29L509.72,0h32.4l-87.23,234.29h-32.4ZM659.01,234.29L572.03,0h32.4l86.99,234.29h-32.4ZM79.26,535.88c-25.26-6.65-44.78-18.4-58.57-35.27C6.89,483.75,0,463.18,0,438.92v-45.11c0-15.95,3.2-30.45,9.6-43.49,6.39-13.04,15.54-24.18,27.42-33.4,11.88-9.22,25.96-15.99,42.25-20.31v30.66c-9.81,2.33-18.32,6.57-25.55,12.71-7.23,6.15-12.76,13.79-16.58,22.93-3.82,9.14-5.73,19.44-5.73,30.91v45.11c0,11.13,1.91,21.23,5.73,30.28,3.82,9.06,9.35,16.62,16.58,22.68,7.23,6.07,15.74,10.26,25.55,12.59v31.41ZM128.36,407.52v-28.66h108.67v28.66h-108.67ZM128.36,468.58v-28.66h108.67v28.66h-108.67ZM319.03,398.79l-3.24-35.89v-38.88h31.65v38.88l-2.99,35.89h-25.42ZM468.58,398.79l-3.24-35.89v-38.88h31.65v38.88l-2.99,35.89h-25.42ZM576.99,407.52v-28.66h108.67v28.66h-108.67ZM576.99,468.58v-28.66h108.67v28.66h-108.67ZM734.76,535.88v-31.41c9.97-2.32,18.53-6.52,25.67-12.59,7.14-6.06,12.63-13.62,16.45-22.68,3.82-9.06,5.73-19.15,5.73-30.28v-45.11c0-11.46-1.91-21.76-5.73-30.91-3.82-9.14-9.31-16.78-16.45-22.93-7.15-6.15-15.7-10.38-25.67-12.71v-30.66c16.45,4.32,30.57,11.09,42.37,20.31,11.79,9.22,20.89,20.36,27.29,33.4,6.4,13.05,9.59,27.54,9.59,43.49v45.11c0,24.26-6.9,44.82-20.69,61.69-13.79,16.86-33.32,28.62-58.57,35.27Z"/>
      <g class="cls-1">
        <rect class="cls-3" width="814.02" height="623.11"/>
      </g>
    </g>
  </g>
</svg>